<svg xmlns="http://www.w3.org/2000/svg" viewBox="0 0 512 512"><title>Zeichenfläche 1</title><path d="M512.19,187.16c-2.27,2.92-1.64,6.56-2.38,9.84-5,22.07-16,40.75-31.82,56.65q-76.94,77.52-154.48,154.42c-2.86,2.82-4.24,2.63-6.86-.1-8.3-8.66-17-16.94-25.31-25.58-2.45-2.55-3.77-2.4-6.2,0C255.4,412.26,225.5,442,195.79,471.88c-2.82,2.84-4.2,3.21-7.22.12C137.82,420,85.88,369.24,34.64,317.75c-30.45-30.51-41-67.18-30.53-109.39,10.55-42.6,50.44-76.9,94.24-81.33a112,112,0,0,1,35.74,1.82c2.38.52,3.48,0,4.55-2.31,16.66-35.61,45.07-56.4,83.26-62.77,34.19-5.7,64.92,3.94,91.38,26.4,7.24,6.14,6.87,6.3,14.2,0,29.18-25,62.82-34.06,100-24.58,42.71,10.92,69.71,38.85,81.65,81.34,1.23,4.38.72,9.13,3,13.24ZM160.06,174.93c-33.75-25.7-75.35-20-101,3.17-34.9,31.48-35.93,82.56-2.44,116.31,43.76,44.09,87.74,88,131.5,132.07,3.08,3.1,4.63,3.18,7.76,0q43.8-44.19,87.93-88c1.36-1.37,2.36-3.28,4.56-3.64,9.6,9.47,19.28,18.86,28.76,28.45,2.24,2.26,3.5,2.47,5.89.07,44.6-44.69,89.52-89.06,133.87-134,22.71-23,29.15-51,18.95-81.52-16.95-50.61-80.42-71.31-124.3-36.23-10.35,8.26-19.19,18-28.35,27.41-2.44,2.52-3.76,2.5-6.22-.07-9.54-10-18.78-20.29-29.78-28.72-27.45-20.91-66.34-21.49-94-1C171.19,125.56,160.54,147.73,160.06,174.93Z" style="fill:#020101"/><path d="M288.33,334.83c-2.2.36-3.2,2.27-4.56,3.64q-44,43.93-87.93,88c-3.13,3.15-4.68,3.07-7.76,0-43.76-44.1-87.74-88-131.5-132.07C23.09,260.65,24.12,209.57,59,178.09c25.69-23.16,67.29-28.87,101-3.16,10.64,8.38,19.68,18.41,29.08,28.06,2.3,2.36,3.67,2.34,6,0q11.22-11.36,22.88-22.3c26.14-24.67,60.94-29.48,92.6-12.9,45.3,23.73,55.74,86.22,20.39,123.1-12.91,13.46-26.31,26.43-39.45,39.67C290.29,331.81,288.52,332.75,288.33,334.83Z" style="fill:#e81224"/><path d="M288.33,334.83c.19-2.08,2-3,3.21-4.27,13.14-13.24,26.54-26.21,39.45-39.67,35.35-36.88,24.91-99.37-20.39-123.1-31.66-16.58-66.46-11.77-92.6,12.9q-11.62,11-22.88,22.3c-2.31,2.33-3.68,2.35-6,0-9.4-9.65-18.44-19.68-29.08-28.06.48-27.19,11.08-49.36,33.06-65.65,27.69-20.53,66.58-20,94,1,11.09,8.38,20.33,18.7,29.88,28.65,2.46,2.57,3.78,2.59,6.22.07,9.15-9.43,18-19.15,28.34-27.41,43.88-35.06,107.35-14.36,124.26,36.26,10.2,30.53,3.76,58.51-18.95,81.52-44.35,44.92-89.27,89.29-133.87,134-2.39,2.4-3.65,2.19-5.89-.07C307.61,353.69,297.93,344.3,288.33,334.83Z" style="fill:#e6808a"/></svg>